<?xml version="1.0" standalone="no"?>
<!DOCTYPE svg PUBLIC "-//W3C//DTD SVG 20010904//EN"
 "http://www.w3.org/TR/2001/REC-SVG-20010904/DTD/svg10.dtd">
<svg version="1.0" xmlns="http://www.w3.org/2000/svg"
 width="920.000000pt" height="771.000000pt" viewBox="0 0 920.000000 771.000000"
 preserveAspectRatio="xMidYMid meet">
<metadata>
Created by potrace 1.16, written by Peter Selinger 2001-2019
</metadata>
<g transform="translate(0.000000,771.000000) scale(0.100000,-0.100000)"
fill="#000000" stroke="none">
<path d="M4290 7690 c-171 -22 -416 -71 -538 -106 -236 -68 -542 -203 -763
-336 l-106 -64 -164 148 c-148 133 -168 147 -201 148 -29 0 -41 -6 -54 -25
-19 -29 -19 -30 34 -202 22 -72 48 -168 58 -214 l18 -82 -28 -24 -28 -24 -19
25 c-17 21 -41 32 -96 42 -7 1 -16 -8 -20 -19 -10 -31 -10 -39 -1 -66 27 -77
27 -76 -111 -223 -225 -239 -418 -499 -550 -744 l-55 -100 -160 101 c-89 56
-257 164 -375 239 -217 139 -253 154 -259 109 -4 -28 -1 -30 408 -289 190
-120 347 -219 349 -220 2 -2 -28 -83 -66 -181 -69 -175 -101 -267 -123 -350
-6 -24 -15 -43 -20 -43 -11 0 -264 77 -545 165 -342 107 -505 155 -530 155
-30 0 -43 -24 -25 -45 6 -8 51 -26 98 -40 48 -15 164 -51 257 -80 94 -29 296
-92 450 -140 154 -48 281 -88 283 -90 2 -2 -5 -48 -16 -102 -11 -54 -23 -118
-27 -143 -8 -58 -25 -101 -36 -94 -5 3 -9 -2 -9 -10 0 -9 -3 -16 -8 -16 -4 0
-13 -9 -20 -21 -8 -12 -9 -18 -3 -14 13 7 14 -14 2 -34 -5 -8 -3 -28 6 -51 13
-32 13 -42 0 -81 -8 -24 -14 -53 -12 -65 1 -15 -5 -24 -19 -29 -12 -3 -221
-11 -466 -16 -245 -5 -451 -12 -458 -14 -8 -3 -12 -16 -10 -32 l3 -28 220 1
c121 1 333 3 470 5 217 3 250 2 246 -11 -2 -8 -5 -31 -8 -50 -2 -19 -7 -42
-10 -50 -3 -8 -7 -54 -9 -103 -3 -83 -20 -141 -44 -149 -6 -2 -12 -13 -15 -26
-2 -13 0 -20 6 -16 6 3 8 -4 5 -19 -2 -13 5 -44 16 -68 17 -37 21 -68 24 -188
1 -79 5 -160 9 -180 13 -66 14 -76 20 -156 6 -94 12 -131 26 -157 5 -10 8 -18
5 -18 -2 0 0 -16 6 -36 5 -20 11 -55 13 -78 1 -23 13 -78 25 -122 12 -43 23
-83 24 -89 4 -20 29 -90 36 -100 9 -13 48 -125 52 -150 2 -11 17 -48 35 -82
18 -35 30 -63 28 -63 -6 0 54 -132 68 -148 7 -8 30 -47 52 -88 60 -111 156
-268 167 -275 5 -3 31 -38 56 -77 26 -39 62 -88 80 -109 18 -21 62 -73 97
-116 36 -44 65 -75 65 -70 0 4 8 -5 18 -22 19 -30 266 -270 279 -270 4 0 27
-20 52 -44 25 -24 69 -59 96 -76 28 -18 62 -44 76 -57 15 -14 70 -51 122 -84
53 -32 93 -63 90 -68 -3 -5 -2 -6 4 -3 5 3 50 -18 99 -48 97 -59 349 -187 361
-183 7 2 86 -26 148 -53 11 -4 43 -15 71 -23 28 -8 65 -21 83 -30 17 -9 33
-16 36 -16 3 0 6 0 8 -1 1 0 10 -2 20 -5 9 -2 25 -6 35 -8 9 -3 17 -5 17 -6 0
-1 11 -3 25 -5 49 -5 106 -16 136 -25 57 -19 131 -33 166 -33 15 0 26 -3 23
-7 -2 -3 2 -7 10 -7 8 0 11 5 8 10 -3 6 -1 7 6 3 17 -11 59 -17 136 -21 39 -2
88 -6 110 -11 46 -8 434 -9 545 0 41 4 100 8 130 11 30 2 69 7 85 10 17 4 46
8 65 10 35 3 67 10 98 19 9 3 33 8 52 11 19 3 42 8 50 10 8 2 37 6 64 10 27 3
57 10 68 16 10 5 18 7 18 4 0 -3 17 3 38 14 20 10 39 19 42 19 3 0 25 6 50 13
25 7 56 14 69 15 13 2 27 7 30 12 3 5 46 21 95 37 49 15 127 48 172 71 46 24
88 44 94 44 7 0 24 9 39 19 14 11 71 43 125 71 55 29 108 60 118 69 10 10 31
24 46 32 41 20 142 89 163 110 11 11 22 19 27 19 4 0 19 10 34 23 14 12 37 31
50 41 103 85 166 143 320 298 97 98 180 187 183 198 4 11 10 20 15 20 14 0
120 140 120 158 0 8 3 12 6 9 7 -7 63 69 108 148 16 28 42 66 58 85 15 19 28
40 28 46 0 7 19 45 43 86 67 114 143 275 171 363 15 44 28 85 30 90 2 6 4 14
4 19 0 5 5 12 10 15 6 4 13 18 15 31 16 92 20 109 30 103 5 -3 7 -2 4 4 -4 6
2 32 12 59 10 27 35 92 55 144 47 124 118 373 149 525 42 199 58 340 65 565 4
134 11 214 17 214 6 -1 179 -5 385 -9 332 -6 377 -5 389 8 9 12 10 21 1 36 -9
18 -20 21 -78 21 -201 0 -698 13 -703 19 -4 3 -14 92 -23 196 -14 164 -30 264
-82 506 -6 28 -70 6 581 208 302 94 310 97 313 124 6 47 27 52 -753 -189 -77
-24 -147 -44 -155 -44 -11 0 -29 46 -64 155 -27 86 -80 221 -118 302 -37 81
-67 148 -65 149 1 1 110 70 242 154 360 228 363 230 369 247 4 9 1 22 -5 29
-23 28 -2 39 -424 -229 -170 -109 -221 -137 -227 -126 -193 329 -369 554 -646
828 l-136 134 28 191 c53 362 51 341 32 370 -12 20 -25 26 -52 26 -31 0 -53
-17 -203 -155 l-169 -155 -104 65 c-212 133 -538 279 -780 349 -116 33 -303
73 -468 98 -200 30 -733 35 -940 8z m770 -276 c280 -28 578 -98 810 -191 133
-53 340 -155 429 -211 l61 -38 -25 -24 -24 -23 -218 36 c-495 83 -832 110
-1348 110 -515 0 -842 -26 -1353 -110 l-224 -36 -30 30 -30 30 90 52 c108 62
306 156 419 199 201 78 523 152 763 176 189 19 494 19 680 0z m1786 -226 c-15
-84 -116 -786 -116 -812 0 -16 41 -164 91 -330 183 -606 179 -590 166 -602 -7
-6 -66 -45 -132 -87 -66 -42 -221 -141 -345 -219 -195 -124 -225 -147 -225
-168 0 -54 35 -37 389 188 190 121 348 217 350 214 10 -17 118 -393 114 -397
-4 -4 -143 -48 -543 -170 -161 -49 -170 -53 -173 -78 -2 -17 2 -29 11 -33 8
-3 162 41 343 97 181 55 342 105 357 110 24 7 29 4 36 -14 21 -55 121 -395
121 -411 0 -16 -8 -17 -87 -12 -49 3 -232 7 -408 9 l-320 2 -3 -22 c-2 -13 4
-25 15 -31 10 -5 194 -13 408 -17 215 -3 398 -9 407 -11 21 -6 46 -87 308
-964 43 -144 47 -115 -47 -325 -110 -246 -285 -533 -447 -735 -97 -120 -304
-330 -421 -425 -349 -284 -746 -486 -1155 -590 -253 -64 -363 -77 -670 -81
-291 -3 -389 4 -570 41 -754 151 -1360 478 -1885 1016 -291 298 -468 585 -592
959 -27 80 -34 116 -30 150 6 48 142 467 252 771 l67 186 180 6 c100 4 243 7
318 7 145 0 176 8 168 46 -3 18 -14 19 -321 16 l-318 -4 14 34 c8 18 40 98 72
178 32 80 62 149 66 154 4 5 121 -26 259 -68 139 -43 259 -75 266 -72 17 7 18
55 2 61 -7 2 -119 36 -248 75 -129 40 -238 75 -241 79 -7 6 115 298 130 314 4
4 111 -58 236 -138 230 -146 267 -162 273 -119 4 27 -5 34 -203 159 -93 60
-193 123 -222 141 l-52 33 46 98 c103 221 167 419 204 628 30 172 36 454 15
653 -16 151 -65 421 -86 476 -6 16 -9 30 -7 32 2 2 106 -89 232 -202 l230
-206 40 5 c22 3 121 19 220 36 194 34 397 60 675 88 223 22 1106 26 1315 5
315 -31 504 -55 695 -88 113 -20 223 -38 246 -41 l41 -5 242 221 c134 121 245
221 248 221 3 0 3 -15 -1 -32z m-4220 -843 c-8 -236 -41 -434 -102 -610 -24
-70 -140 -344 -150 -354 -2 -2 -32 14 -66 37 -35 22 -133 84 -218 137 -85 54
-161 103 -167 109 -10 9 2 38 53 131 139 253 300 469 514 689 l125 128 8 -53
c5 -30 6 -126 3 -214z m4360 113 c171 -179 342 -404 451 -594 30 -53 51 -99
46 -104 -4 -4 -60 -40 -123 -80 -63 -40 -142 -90 -175 -111 -33 -21 -61 -35
-62 -31 -3 14 -185 619 -219 728 -33 109 -34 113 -22 193 6 44 14 81 18 81 4
0 43 -37 86 -82z m575 -825 c45 -98 133 -327 157 -406 15 -49 17 -69 9 -72
-217 -67 -441 -134 -444 -132 -11 12 -132 432 -126 438 7 7 365 237 370 238 2
1 17 -29 34 -66z m-5436 -187 c116 -74 209 -141 208 -148 -1 -11 -141 -339
-147 -345 -6 -6 -471 146 -474 155 -8 25 114 390 159 474 12 22 -13 35 254
-136z m5658 -493 c14 -76 29 -158 33 -183 13 -85 30 -311 24 -315 -3 -2 -37
-2 -76 0 -38 2 -124 4 -192 4 -89 1 -124 4 -127 14 -32 98 -142 473 -140 475
5 5 427 140 441 141 7 1 22 -53 37 -136z m-5878 11 c99 -31 196 -61 216 -67
l36 -12 -83 -205 c-69 -171 -86 -206 -106 -211 -12 -4 -99 -7 -191 -8 l-168
-1 5 53 c3 28 8 84 11 122 7 78 54 375 62 388 3 5 12 5 22 2 9 -4 97 -31 196
-61z m-21 -785 c-43 -118 -105 -299 -139 -403 l-61 -188 -17 89 c-33 168 -49
338 -50 523 l-2 185 170 5 c94 3 171 4 173 4 2 -1 -32 -98 -74 -215z m5854
204 l112 -6 0 -91 c0 -137 -27 -413 -55 -571 -28 -152 -41 -214 -48 -221 -2
-2 -34 96 -71 218 -94 312 -198 651 -203 666 -6 14 82 16 265 5z"/>
<path d="M3354 6105 c-99 -21 -172 -62 -249 -140 -111 -112 -165 -235 -165
-377 0 -151 47 -263 155 -372 111 -112 236 -166 384 -166 136 0 245 46 356
152 124 117 169 219 168 383 0 160 -46 265 -167 386 -124 125 -301 174 -482
134z m207 -65 c86 -16 173 -64 240 -133 184 -189 182 -463 -4 -646 -88 -88
-179 -131 -289 -138 -149 -10 -252 31 -364 143 -181 181 -179 460 5 645 112
112 258 158 412 129z"/>
<path d="M3481 5682 c-47 -23 -72 -61 -78 -114 -11 -93 51 -158 150 -158 53 0
59 3 102 43 61 59 61 88 1 105 -54 14 -103 61 -112 107 -7 40 -15 42 -63 17z"/>
<path d="M5703 6105 c-166 -36 -332 -195 -384 -367 -18 -58 -21 -88 -17 -182
4 -105 7 -118 41 -191 30 -61 55 -96 115 -155 112 -110 228 -160 372 -160 143
0 260 50 371 160 116 114 159 216 159 376 0 161 -54 282 -178 396 -129 118
-299 162 -479 123z m212 -65 c137 -22 273 -130 337 -267 28 -58 33 -82 36
-164 7 -161 -33 -255 -151 -365 -101 -94 -208 -131 -349 -121 -103 7 -183 44
-271 127 -95 88 -139 179 -145 297 -8 157 34 268 144 373 113 109 238 146 399
120z"/>
<path d="M5670 5682 c-49 -26 -83 -93 -75 -147 12 -80 66 -125 151 -125 58 0
108 30 137 83 25 46 22 54 -23 61 -52 8 -107 57 -120 107 -12 44 -21 47 -70
21z"/>
<path d="M4500 5024 c-70 -9 -197 -34 -247 -49 -55 -16 -75 -43 -53 -70 7 -8
106 -69 221 -136 l209 -121 0 -74 c0 -69 -1 -74 -21 -74 -62 0 -466 64 -539
86 -179 53 -338 108 -405 140 -97 46 -173 64 -280 64 -193 0 -352 -86 -421
-226 -51 -103 -41 -242 27 -382 74 -152 267 -313 461 -384 46 -17 179 -66 296
-109 l213 -79 353 -59 352 -59 355 54 354 54 180 74 c99 41 227 94 285 117
134 55 265 142 360 238 120 122 174 245 174 396 0 81 -3 96 -31 151 -37 71
-93 123 -178 165 -156 76 -345 69 -525 -21 -30 -15 -145 -57 -255 -93 -187
-62 -214 -68 -423 -97 -123 -16 -232 -30 -243 -30 -17 0 -19 7 -19 73 l0 74
98 60 c53 33 143 88 200 123 93 56 103 65 100 89 -4 34 -46 55 -164 81 -87 20
-350 34 -434 24z m1510 -304 c62 -12 162 -55 185 -80 15 -16 2 -27 -186 -169
l-203 -151 -62 167 c-35 92 -61 170 -58 174 6 11 111 49 159 59 58 11 105 11
165 0z m-2463 -25 c43 -14 84 -29 92 -34 11 -7 5 -33 -34 -142 -26 -74 -54
-149 -61 -167 l-13 -33 -203 152 c-112 83 -207 155 -212 159 -4 5 11 19 35 31
127 65 263 77 396 34z m2131 -228 c34 -89 62 -168 62 -174 0 -6 -10 -15 -22
-19 -13 -3 -108 -38 -212 -76 -104 -38 -192 -65 -196 -61 -7 8 -73 364 -68
368 3 3 360 123 368 124 3 1 33 -72 68 -162z m-1768 97 c96 -31 178 -59 183
-63 7 -7 -51 -341 -63 -361 -4 -7 -77 15 -216 65 -115 42 -211 78 -215 81 -9
5 114 334 126 334 5 0 88 -25 185 -56z m-625 -148 c116 -86 211 -161 213 -166
6 -17 -113 -340 -125 -340 -6 0 -45 23 -86 50 -87 58 -172 146 -216 224 -42
72 -75 205 -68 267 7 56 43 133 60 126 7 -3 107 -75 222 -161z m3001 118 c36
-85 23 -204 -33 -322 -49 -101 -293 -323 -308 -280 -2 7 -29 82 -58 166 l-54
154 211 159 c116 87 215 159 219 159 4 0 15 -16 23 -36z m-1662 -143 c3 -20 6
-105 6 -189 l0 -153 -42 6 c-24 3 -142 17 -262 30 -121 14 -221 26 -222 28 -2
2 12 86 31 188 19 101 35 184 35 184 0 0 101 -13 224 -29 l224 -30 6 -35z
m546 87 c0 -2 16 -84 35 -182 19 -99 33 -181 32 -183 -4 -3 -530 -63 -533 -60
-1 1 -4 85 -5 187 l-3 185 199 26 c182 24 275 33 275 27z m-1341 -352 c101
-36 185 -67 186 -68 4 -5 -61 -357 -66 -363 -3 -2 -45 11 -94 29 -50 18 -161
59 -247 90 -87 32 -158 64 -158 70 0 7 25 80 55 162 31 82 57 154 60 161 3 10
13 9 42 -1 21 -8 121 -44 222 -80z m1974 4 c13 -41 39 -112 56 -157 l30 -83
-37 -16 c-189 -80 -444 -184 -453 -184 -4 0 -21 75 -38 168 -18 92 -34 174
-37 183 -4 13 18 24 103 55 59 21 160 57 223 80 63 24 118 40 121 36 4 -4 18
-41 32 -82z m-1400 -126 l227 -27 0 -203 0 -203 -37 6 c-189 29 -565 92 -568
95 -4 3 52 329 61 357 3 10 16 12 47 7 23 -3 144 -17 270 -32z m885 -152 c19
-101 33 -185 30 -187 -2 -2 -127 -22 -278 -44 -151 -23 -290 -43 -307 -46
l-33 -6 0 204 0 204 193 22 c105 13 217 27 247 31 30 4 68 7 85 7 l30 -2 33
-183z"/>
</g>
</svg>
